<svg xmlns="http://www.w3.org/2000/svg" xmlns:xlink="http://www.w3.org/1999/xlink" version="1.1" width="1000" height="1000"><path d="M 333.33334 0.0 C 333.3333 91.99999 407.99997 241.33331 499.99997 333.3333 C 499.99997 333.3333 666.6666 499.99997 666.6666 499.99997 C 758.6666 592.0 907.99994 666.6666 1000.0 666.6667" style="fill:none;stroke:rgb(0,0,0);stroke-width:40"></path><path d="M 1000.0 333.33334 C 907.99994 333.3333 758.6666 407.99997 666.6666 499.99997 C 666.6666 499.99997 499.99997 666.6666 499.99997 666.6666 C 407.99997 758.6666 333.3333 907.99994 333.33334 1000.0" style="fill:none;stroke:rgb(0,0,0);stroke-width:40"></path><path d="M 666.6667 1000.0 C 666.6666 907.99994 592.0 758.6666 499.99997 666.6666 C 499.99997 666.6666 333.3333 499.99997 333.3333 499.99997 C 241.33331 407.99997 92.00001 333.3333 0.0 333.33334" style="fill:none;stroke:rgb(0,0,0);stroke-width:40"></path><path d="M 666.6667 0.0 C 666.6666 91.99999 592.0 241.33331 499.99997 333.3333 C 499.99997 333.3333 333.3333 499.99997 333.3333 499.99997 C 241.33331 592.0 92.00001 666.6666 0.0 666.6667" style="fill:none;stroke:rgb(0,0,0);stroke-width:40"></path></svg>